<svg id="Layer_1" data-name="Layer 1" xmlns="http://www.w3.org/2000/svg" xmlns:xlink="http://www.w3.org/1999/xlink" viewBox="0 0 922 260"><defs><style>.cls-1{fill:none;}.cls-2,.cls-41,.cls-5{fill:#c1dc80;}.cls-2{opacity:0.4;}.cls-3{fill:#535252;}.cls-4{fill:#81bc41;}.cls-5{opacity:0.2;}.cls-6{fill:#a2cd44;}.cls-7{fill:#fff;}.cls-8{clip-path:url(#clip-path);}.cls-9{fill:#8a6d50;}.cls-10{fill:#23baed;}.cls-11{fill:#6f7172;}.cls-12{fill:#2b357f;}.cls-13{fill:#d0d2d3;}.cls-14{clip-path:url(#clip-path-3);}.cls-15{fill:#969eac;}.cls-16{fill:#70bf44;}.cls-17{fill:#595a5c;}.cls-18{fill:#959596;}.cls-19{fill:#272829;}.cls-20{fill:#aa8764;}.cls-21{fill:#2673b8;}.cls-22{fill:#afd9f4;}.cls-23{fill:#71583c;}.cls-24{fill:#5c823a;}.cls-25{clip-path:url(#clip-path-8);}.cls-26{fill:#452257;}.cls-27{fill:#7c367d;}.cls-28{clip-path:url(#clip-path-9);}.cls-29{fill:#72a742;}.cls-30{fill:#9b4a9c;}.cls-31{fill:#80ba41;}.cls-32{fill:#a3ce42;}.cls-33{fill:#682a7b;}.cls-34{fill:#f78c21;}.cls-35{fill:#682a7c;}.cls-36{fill:#0c743c;}.cls-37{clip-path:url(#clip-path-12);}.cls-38{clip-path:url(#clip-path-14);}.cls-39{fill:#a4ce44;}.cls-40{fill:#6e6f71;}.cls-42{clip-path:url(#clip-path-18);}.cls-43{clip-path:url(#clip-path-22);}.cls-44{fill:#929497;}.cls-45{fill:#18264f;}.cls-46{fill:#01a4cb;}</style><clipPath id="clip-path"><rect class="cls-1" x="276.1" y="113.51" width="122.66" height="129.98"/></clipPath><clipPath id="clip-path-3"><rect class="cls-1" x="277.1" y="114.01" width="122.66" height="129.98"/></clipPath><clipPath id="clip-path-8"><rect class="cls-1" x="61.89" y="162.51" width="39.1" height="36.66"/></clipPath><clipPath id="clip-path-9"><rect class="cls-1" x="624.83" y="118.26" width="281.33" height="153.14"/></clipPath><clipPath id="clip-path-12"><rect class="cls-1" x="624.53" y="118.26" width="281.33" height="153.14"/></clipPath><clipPath id="clip-path-14"><rect class="cls-1" x="552" y="190.73" width="92.51" height="47.07"/></clipPath><clipPath id="clip-path-18"><rect class="cls-1" x="809.77" y="88.02" width="49.83" height="32.63"/></clipPath><clipPath id="clip-path-22"><rect class="cls-1" x="809.15" y="86.77" width="49.83" height="32.63"/></clipPath></defs><title>Artboard 1</title><rect class="cls-2" width="355.11" height="260.08"/><polygon class="cls-3" points="810.55 101.11 810.54 101.12 810.62 101.53 810.4 101.52 810.32 101 810.39 100.77 812.3 101.43 812.21 101.7 810.55 101.11"/><polygon class="cls-3" points="811.54 97.93 811.54 97.93 811.61 98.35 811.39 98.33 811.31 97.81 811.38 97.58 813.29 98.25 813.21 98.51 811.54 97.93"/><polygon class="cls-3" points="812.03 96.33 812.03 96.34 812.1 96.75 811.89 96.74 811.8 96.22 811.88 95.99 813.78 96.65 813.7 96.92 812.03 96.33"/><polygon class="cls-3" points="813.03 93.15 813.02 93.15 813.09 93.57 812.88 93.55 812.79 93.03 812.87 92.8 814.77 93.46 814.69 93.73 813.03 93.15"/><polygon class="cls-3" points="814.36 88.02 814.28 88.25 814.37 88.77 814.58 88.79 814.51 88.37 814.51 88.37 816.18 88.95 816.26 88.68 814.36 88.02"/><polygon class="cls-4" points="136.57 222.99 134.84 218.37 136.3 218.39 134.4 214.82 135.37 215.04 133.81 211.08 131.86 215.47 132.94 215.14 130.78 219.09 132.29 219.15 130.78 222.99 136.57 222.99"/><rect class="cls-5" x="355.11" width="566.89" height="260.08"/><polygon class="cls-4" points="540.83 212.92 536.25 200.69 540.12 200.74 535.1 191.28 537.66 191.86 533.52 181.4 528.37 193 531.23 192.14 525.5 202.6 529.51 202.75 525.5 212.92 540.83 212.92"/><polygon class="cls-6" points="487.94 139.65 476.64 156.9 481.06 156.9 472.36 172 479.59 171.57 468.78 188.77 476.15 189.26 465.84 202.52 472.5 202.84 465.84 213.99 506.85 213.99 497.76 194.13 504.64 197.12 495.8 179.43 502.19 179.43 491.86 159.79 498.01 160.77 487.94 139.65"/><path class="cls-7" d="M520.16,224.21h-392s83.61-28.15,109.65-42.9,70.58-38.88,70.58-38.88l11.71,7.37,41.34-25.69L419.6,161.2l28.88-12.07Z"/><g class="cls-8"><path class="cls-9" d="M335.29,173.41a5.11,5.11,0,0,0,3.29-.06,3.71,3.71,0,0,0,2.07-4.54l-7.56-20.4a3.32,3.32,0,0,0-4.41-2,3.27,3.27,0,0,0-2.09,4.3Z"/></g><polygon class="cls-10" points="330.89 162.15 337.26 159.71 334.33 151.84 328.55 156.94 330.89 162.15"/><g class="cls-8"><path class="cls-11" d="M332.79,227.07a1.55,1.55,0,0,0,1.49-.83l4.48-11.44a1.34,1.34,0,0,0-.83-1.82,1.37,1.37,0,0,0-1.66.83l-4.48,11.44a1.17,1.17,0,0,0,.66,1.66.51.51,0,0,0,.33.17"/><path class="cls-11" d="M334,215.13h6.46a1.22,1.22,0,0,0,1.33-1.33,1.31,1.31,0,0,0-1.33-1.33H334a1.31,1.31,0,0,0-1.33,1.33,1.22,1.22,0,0,0,1.33,1.33"/><path class="cls-12" d="M313.73,172.84V178a5,5,0,0,0,5.14,5h17.57V172.84Z"/><path class="cls-9" d="M350.2,178c0-2.82-1.64-5.29-4.45-5.29l-9.3.15V183h8.62a5,5,0,0,0,5.14-5"/></g><polygon class="cls-9" points="349.53 180.47 338.76 205.34 330.64 205.18 334.12 196.22 338.26 180.8 349.53 180.47"/><polygon class="cls-13" points="342.57 196.55 338.76 205.51 330.64 205.34 334.12 196.39 342.57 196.55"/><g class="cls-14"><path class="cls-10" d="M340.42,205.68c4.47.17,6.8,3.32,5.47,7.46l-8.45-.17-9-.17,3.15-7.3Z"/><path class="cls-15" d="M356.33,220.44a19.89,19.89,0,1,0,19.89-19.9,20,20,0,0,0-19.89,19.9m-3.65,0A23.54,23.54,0,1,1,376.22,244a23.53,23.53,0,0,1-23.54-23.55"/><path class="cls-15" d="M280.75,220.44a19.89,19.89,0,1,0,19.89-19.9,20,20,0,0,0-19.89,19.9m-3.65,0A23.54,23.54,0,1,1,300.64,244a23.53,23.53,0,0,1-23.54-23.55"/><path class="cls-16" d="M334.29,223.92l-9.12-31.34h34.15c.33.83.5,1.49.83,2.32Zm-31.16-4.48,19.73-25.21,9,30.68Zm73.1-1.49c-.33,0-.5,0-.66.17-2.15-1.82-5.8-5.47-7.29-9-1-2.49-3.31-8.62-5.3-14.59l-1.49-4.15c-1.33-4-2.49-7.46-3-8.62l1.66-3.65a1.27,1.27,0,0,0-.33-1.49l-2.82-3a2.35,2.35,0,0,0-1-.33h-8.79a1.31,1.31,0,0,0-1.33,1.33,1.22,1.22,0,0,0,1.33,1.33h8.29l1.82,1.82-1.49,3.32a1.06,1.06,0,0,0,0,1c0,.33,1.16,3.48,2.49,7.63h-34l-.66-2.32a1.37,1.37,0,0,0-1.66-.83,1.33,1.33,0,0,0-1,1.66l.83,2.65-21.05,27h-.17a2.55,2.55,0,0,0-2.49,2.49c0,.17.17.5.17.66l.17.33a2.22,2.22,0,0,0,2.15,1.33,1.92,1.92,0,0,0,1.66-.66l31.83,6,27-30.18c1.82,5.14,3.65,10.12,4.64,12.44,1.66,4,5.8,7.79,8,9.78v.33a2.41,2.41,0,0,0,2.49,2.32,2.27,2.27,0,0,0,2.32-2.32,2.41,2.41,0,0,0-2.32-2.49"/><path class="cls-17" d="M332.63,182.46c-2,3.65-8.62,6-13.1,6-4.31,0-7.62-3-7.62-6Z"/><path class="cls-18" d="M328,226.57a5.59,5.59,0,0,0,5.64,5.64,5.64,5.64,0,1,0,0-11.28,5.59,5.59,0,0,0-5.64,5.64"/><path class="cls-18" d="M329.81,237.35a1.26,1.26,0,0,0,1.49-.83l3.81-10.45a1.39,1.39,0,0,0-.66-1.82,1.67,1.67,0,0,0-1.82.83l-4,10.45a1.67,1.67,0,0,0,.83,1.82Z"/><path class="cls-19" d="M353.85,174.67a1.22,1.22,0,0,1-1.33,1.33h-5.47a1.22,1.22,0,0,1-1.33-1.33,1.31,1.31,0,0,1,1.33-1.33h5.47a1.31,1.31,0,0,1,1.33,1.33"/><path class="cls-18" d="M365,177.65a4.06,4.06,0,1,0,0,8.13Z"/><path class="cls-20" d="M335.95,202.36a5.57,5.57,0,0,0,1.16-7.79L328,182.46l-9,6.8,9.28,12.27a5.66,5.66,0,0,0,7.62.83"/><path class="cls-21" d="M334.29,190.75,318,169.19l-6.46,4.15c0,3.32.5,6.63,2.32,9.12l11.44,14.92Z"/></g><rect class="cls-20" x="327.56" y="137.34" width="6.97" height="8.29" transform="translate(52.47 369.53) rotate(-62.45)"/><g class="cls-8"><path class="cls-22" d="M329.9,143.69c7.79,4.06,4.29,13.65,1.29,19.38l-6.32,9.8h-15l16.39-31.1Z"/><path class="cls-20" d="M328.55,170.29c.29,1.76,2.75,2.7,4.55,2.24,2-.42,2.39-1.44,1.94-3.24l-4.11-21.45a3.53,3.53,0,0,0-6.92,1.36Z"/></g><polygon class="cls-21" points="324.83 172.84 310.58 172.84 324.83 183.29 324.83 172.84"/><polygon class="cls-9" points="335.25 142.32 327.4 140.08 333.27 146.25 335.25 142.32"/><polygon class="cls-22" points="324.37 159.13 332.89 157.44 330.22 144.12 325.93 144.13 322.32 149.86 324.37 159.13"/><g class="cls-8"><path class="cls-10" d="M332.13,227.4a8.54,8.54,0,0,1,7,9.29L330.64,235l-8.79-1.82,1.66-7.63Z"/></g><polygon class="cls-20" points="337.1 197.72 331.63 227.23 323.51 225.58 325.17 216.12 326.16 199.21 337.1 197.72"/><polygon class="cls-13" points="333.45 217.78 331.63 227.24 323.51 225.58 325.17 216.12 333.45 217.78"/><g class="cls-8"><path class="cls-18" d="M325,236.69l6.3,1.33a1.37,1.37,0,0,0,1.66-1.16,1.22,1.22,0,0,0-1.16-1.49L325.5,234a1.47,1.47,0,0,0-1.66,1,1.37,1.37,0,0,0,1.16,1.66"/><path class="cls-20" d="M331.67,166a3.34,3.34,0,0,0-3.23,3.32,3.39,3.39,0,0,0,3.24,3.48l16.65,0a3.26,3.26,0,0,0,3.08-3.49,3.22,3.22,0,0,0-3.09-3.31Z"/><path class="cls-20" d="M340.79,172.82h13.76a6.88,6.88,0,0,0-13.75,0"/><path class="cls-20" d="M321.82,127.87a11.56,11.56,0,0,1,13.47-9.26l10.47,1.87s1.26,9.88,1.35,10.18a3.83,3.83,0,0,0,2.06,3l-.42,2.37-2.65-.47-1.47,8.24-13.54-2.42-.14,0a11.53,11.53,0,0,1-9.12-13.45"/><path class="cls-23" d="M334.9,133.67l1.75-9.77,9.77,1.75c-.25-2.64-.66-5.16-.66-5.16l-10.47-1.87a11.56,11.56,0,0,0-13.47,9.26,11.8,11.8,0,0,0,4.43,11.46Z"/><path class="cls-20" d="M336.07,127.11l-1.17,6.56a3.24,3.24,0,0,1-2.61-3.92,3.21,3.21,0,0,1,3.79-2.64"/></g><rect class="cls-23" x="332.48" y="127.39" width="9.93" height="3.4" transform="matrix(0.18, -0.98, 0.98, 0.18, 150.94, 438.52)"/><g class="cls-8"><path class="cls-16" d="M347.07,125.8l-22.39-4s2.88-9.25,12-8.2c10.82,1.25,10.41,12.21,10.41,12.21"/><path class="cls-24" d="M342.72,125l5.85,1s2.87-4.49,2.44-5.94-8.29,4.9-8.29,4.9"/></g><path class="cls-19" d="M366.87,225.74h2.84v2.84h-2.84Zm14.2-14.2h2.84v2.84h-2.84ZM371.13,230v-4.68l9.52-9.52h4.68v-5.68h-5.68v4.68l-9.52,9.52h-4.68V230Z"/><polygon class="cls-19" points="376.81 224.32 379.65 224.32 379.65 221.48 382.47 221.48 382.47 224.32 385.33 224.32 385.33 227.13 382.47 227.13 382.47 230 379.65 230 379.65 227.13 376.81 227.13 376.81 224.32"/><g class="cls-25"><path class="cls-26" d="M77.81,182.59c-1.9-10.91-4.14-16.82-7.73-19.21s-3.05.52-2.92,3.67a10.82,10.82,0,0,1-1.89,6.51c-.62,1.06.55,3.06,3.37,5.35-4.33-.06-6.43,1.47-6.68,3.45a11.88,11.88,0,0,0,1.73,7.55c1.54,2.33,3.13,2.68,6.63-.38,2.54-2.22,5.33-4.86,6.68-6.15.91,0,.81-.78.81-.78"/><path class="cls-10" d="M71.36,167.35c-.27.27-1.05-.1-1.75-.82s-1-1.52-.77-1.79,1.05.1,1.75.82,1,1.52.77,1.79"/><path class="cls-10" d="M71,169.38c-.2.25-.82.09-1.37-.36s-.85-1-.65-1.27.82-.09,1.37.36.85,1,.65,1.27"/><path class="cls-10" d="M70.22,170.49c-.44-.3-.92-.35-1.08-.12s.08.66.51,1,.92.35,1.08.12-.08-.66-.51-1"/><path class="cls-26" d="M78.64,183.15c10.82-2.33,17.15-2.46,20.71,0s.66,3-2.31,4.08a10.82,10.82,0,0,0-5.33,4.19c-.75,1-3,.64-6.22-1.12,1.68,4,1,6.51-.7,7.49A11.88,11.88,0,0,1,77.15,199c-2.73-.56-3.65-1.9-2.13-6.29,1.1-3.18,2.51-6.76,3.2-8.49-.3-.86.42-1,.42-1"/><path class="cls-10" d="M95.19,183.42c-.14.35.49.94,1.42,1.32s1.8.4,1.95,0-.49-.94-1.42-1.32-1.8-.4-1.95,0"/><path class="cls-10" d="M93.46,184.55c-.16.28.22.79.85,1.14s1.26.4,1.42.12-.22-.79-.85-1.14-1.26-.4-1.42-.12"/><path class="cls-10" d="M92.71,185.66c.44.3.67.72.51,1s-.64.18-1.08-.12-.67-.72-.51-1,.64-.18,1.08.12"/><path class="cls-27" d="M85.74,178.6l.06-.11a.58.58,0,1,1,.15.82.57.57,0,0,1-.25-.4,8.87,8.87,0,0,0-5.87,1.74l-.18-.25a9.2,9.2,0,0,1,6.09-1.8"/><path class="cls-27" d="M79.48,174.38l.08-.09a.58.58,0,1,0-.82.17.58.58,0,0,0,.46.08,8.87,8.87,0,0,1,.59,6.1l.3.08a9.2,9.2,0,0,0-.61-6.33"/><path class="cls-10" d="M78.84,180.74a1,1,0,0,1,1.34-1.17,1,1,0,0,1,.4,1.44,1,1,0,0,1-.7.43,5.89,5.89,0,0,1-1.15,2.92,8,8,0,0,1-1.32,1.53l-3.83,4.32h0c-.52.59-.84.3-.52-.35l2.72-5.53a8.47,8.47,0,0,1,.78-1.43,5.89,5.89,0,0,1,2.28-2.16"/></g><path class="cls-10" d="M67.5,185.61l-.48-.32-.22-1.21,1.2-.25.48.32-.8.16,1.43,1-.33.48-1.43-1Zm-.37,1.07-1.78-1.2.25-.36,1.78,1.2Zm-.8-2.66-.49.73-1.78-1.2.49-.73Zm.25-.36-1.07-.72.49-.73,1.07.72Zm.74-1.09,1.43,1,.25-.36-1.43-1Z"/><polygon class="cls-10" points="69.35 181.84 70.06 182.32 70.56 181.59 71.26 182.07 70.77 182.8 71.49 183.29 71 184.01 70.28 183.52 69.79 184.25 69.09 183.77 69.58 183.04 68.86 182.56 69.35 181.84"/><path class="cls-10" d="M79,193.37l.47.32,1.2-.25-.22-1.21-.48-.32.15.81-1.43-1-.33.48,1.43,1Zm-.85.75,1.78,1.2.25-.36-1.78-1.2Zm2.76-.25-.49.73,1.78,1.2.49-.73Zm.25-.36,1.07.72.49-.73-1.07-.72Zm.74-1.09-1.43-1,.25-.36,1.43,1Z"/><polygon class="cls-10" points="81.81 190.24 81.09 189.76 81.59 189.03 80.88 188.55 80.39 189.29 79.67 188.8 79.18 189.52 79.9 190.01 79.41 190.73 80.12 191.21 80.61 190.48 81.32 190.96 81.81 190.24"/><g id="iconBg"><path class="cls-4" d="M170.74,207.68A8.43,8.43,0,0,0,163,212.9l-.78.45L156.48,202l-7.93,15.85a4.26,4.26,0,0,0-.5,2c0,2.85,3.14,5.11,7.31,5.46v1.5l8.34,4.77,8.34-4.77V224.4a8.41,8.41,0,0,0-1.32-16.71Zm-7,7.53,4.74,2.71-4.74,2.71-.07,0L159,217.93Zm-13.27,4.6a1.94,1.94,0,0,1,.24-.91l5.81-11.61,3.62,7.24-4.74,2.7v5.66C152.41,222.6,150.44,221.14,150.44,219.82Zm12.08,8.3-4.77-2.73V220l4.77,2.73Zm7.15-2.73-4.77,2.73V222.7l4.77-2.73Zm2.38-3.4v-4.75l-6.69-3.82a6,6,0,1,1,6.69,8.58Z"/></g><g class="cls-28"><path class="cls-29" d="M849.81,189.33v3.23h-2.6v2.93H842v2.93h5.19v2.93h10.39v-2.93h5.19v-2.93h-5.19v-2.93H855v-3.23c-.78,0-1.82.29-2.6.29a7.87,7.87,0,0,1-2.6-.29"/></g><polygon class="cls-29" points="862.8 172.03 867.99 172.03 867.99 177.9 873.19 177.9 873.19 172.03 878.38 172.03 878.38 166.17 873.19 166.17 873.19 160.31 867.99 160.31 867.99 166.17 862.8 166.17 862.8 172.03"/><g class="cls-28"><path class="cls-29" d="M842,169.1v14.66c0,2.64,3.38,5,7.79,5.57.78,0,1.82.29,2.6.29a7.87,7.87,0,0,0,2.6-.29c4.41-.59,7.79-2.93,7.79-5.57V175h-2.6v-4.4c-1.3,1.17-4.15,2.35-7.79,2.35-5.19,0-8.57-2.35-8.57-3.81s3.38-3.81,8.57-3.81c3.64,0,6.49,1.17,7.79,2.35v-2.35a14.93,14.93,0,0,0-7.79-2.05c-5.71,0-10.39,2.64-10.39,5.86"/></g><polygon class="cls-30" points="696.42 213.53 702.15 196.5 698.57 196.5 706.2 173.99 703.15 173.99 711.76 148.13 720.64 173.99 717.44 173.99 725.22 196.5 721.54 196.5 727.37 213.53 696.42 213.53"/><g class="cls-28"><path class="cls-31" d="M624.83,220.66c14.83-16.19,41.3-27.09,71.62-27.09s56.68,10.89,71.51,27.09Z"/><path class="cls-32" d="M714.5,229.95c19.86-21.68,55.31-36.27,95.9-36.27s75.9,14.59,95.76,36.27Z"/></g><polygon class="cls-33" points="871.87 190.43 863.16 222.38 884.97 222.38 884.97 221.42 876.52 190.43 871.87 190.43"/><polygon class="cls-29" points="871.87 190.43 863.16 222.38 884.97 222.38 884.97 221.42 876.52 190.43 871.87 190.43"/><polygon class="cls-17" points="830.28 137.91 834.31 223.47 826.25 223.47 830.28 137.91"/><polygon class="cls-24" points="830.21 118.26 807.17 203.29 853.39 203.29 853.39 202.31 830.35 118.26 830.21 118.26"/><polygon class="cls-17" points="830.28 140.45 833.5 214.57 827.32 214.57 830.28 140.45"/><polygon class="cls-17" points="845.05 193 832.96 209.41 830.28 206.67 845.05 193"/><polygon class="cls-17" points="842.37 173.26 832.16 187.84 829.47 185.1 842.37 173.26"/><polygon class="cls-17" points="839.41 161.11 831.35 173.26 829.47 169.92 839.41 161.11"/><polygon class="cls-17" points="816.03 186.93 828.13 203.33 830.54 200.6 816.03 186.93"/><polygon class="cls-17" points="818.45 176.9 828.93 191.48 831.35 188.75 818.45 176.9"/><polygon class="cls-17" points="824.63 155.94 829.74 164.45 830.28 161.11 824.63 155.94"/><polygon class="cls-31" points="796.28 186.12 789.22 211.97 807.15 211.97 807.15 211 800.36 186.12 796.28 186.12"/><polygon class="cls-24" points="796.28 186.12 789.22 211.97 807.15 211.97 807.15 211 800.36 186.12 796.28 186.12"/><polygon class="cls-34" points="728.05 181.89 734.76 209.82 721.61 209.82 728.05 181.89"/><polygon class="cls-35" points="728.05 181.89 734.76 209.82 721.61 209.82 728.05 181.89"/><polygon class="cls-36" points="689.81 158.76 677.91 203.19 704.61 203.19 692.47 158.76 689.81 158.76"/><polygon class="cls-24" points="689.81 158.76 677.91 203.19 704.61 203.19 692.47 158.76 689.81 158.76"/><g class="cls-37"><path class="cls-29" d="M648.91,200.13v2.49h-2v2.26h-4v2.26h4v2.26h8v-2.26h4v-2.26h-4v-2.26h-2v-2.49c-.6,0-1.4.23-2,.23a6.07,6.07,0,0,1-2-.23"/></g><polygon class="cls-29" points="659.23 186.78 663.24 186.78 663.24 191.31 667.25 191.31 667.25 186.78 671.25 186.78 671.25 182.26 667.25 182.26 667.25 177.73 663.24 177.73 663.24 182.26 659.23 182.26 659.23 186.78"/><g class="cls-28"><path class="cls-29" d="M643.2,184.52v11.31c0,2,2.6,3.85,6,4.3.6,0,1.4.23,2,.23a6.07,6.07,0,0,0,2-.23c3.41-.45,6-2.26,6-4.3V189h-2v-3.39a9.46,9.46,0,0,1-6,1.81c-4,0-6.61-1.81-6.61-2.94s2.61-2.94,6.61-2.94a9.46,9.46,0,0,1,6,1.81v-1.81a11.52,11.52,0,0,0-6-1.58c-4.41,0-8,2-8,4.52"/></g><polygon class="cls-17" points="558.27 224.78 560.79 225.67 566.11 215.46 563.45 214.28 558.27 224.78"/><g class="cls-38"><path class="cls-17" d="M575.43,199.93l1.92,2.51,10.5-6.66-1.33-2.22a61.82,61.82,0,0,1-6.36,3c-4,1.63-4.73,3.4-4.73,3.4"/><path class="cls-29" d="M572.76,237.8l34.77-45.21c-17.75,0-35.2,1-51.18,40-.77,1.89-1.43,3.61-2,5.18Z"/><path class="cls-39" d="M628.73,206.12l0-.08c-4.22-8-12.11-13.45-21.15-13.45-8.66,0-16.26,5-20.6,12.45l0,0c-7.32,10.48-14.14,32.71-14.14,32.71H642.3s-5.92-18.64-13.57-31.68"/><path class="cls-24" d="M626.59,233.65c-.12-2.49-.73-12.87-2.65-17.36h0a16.85,16.85,0,0,0-32.51-1.05h0a17.35,17.35,0,0,0-.66,3,82.32,82.32,0,0,0-1.16,15.39Z"/></g><polygon class="cls-26" points="556.34 232.62 554.33 237.8 572.91 237.8 574.59 232.62 556.34 232.62"/><polygon class="cls-30" points="574.54 232.62 572.76 237.8 642.3 237.8 640.52 232.62 574.54 232.62"/><g class="cls-38"><path class="cls-40" d="M567.83,207.2c-8.48,11.25-14.52,27-15.83,30.55h.95c1.5-4,7.4-19.15,15.59-30,14.67-19.46,35.21-17.44,45-13.17l.35-.81c-10.06-4.37-31.09-6.45-46.09,13.45"/></g><polygon class="cls-17" points="575.43 223.67 577.95 224.41 582.09 214.72 579.95 213.39 575.65 223.37 575.43 223.67"/><g class="cls-38"><path class="cls-17" d="M588.3,200.3l1.55,1.55,9.47-7.4L598.21,193s-3.48,1.85-5.25,2.88-4.66,4.44-4.66,4.44"/></g><polygon class="cls-17" points="637.42 225 639.56 224.11 635.27 213.83 632.98 214.79 637.42 225"/><polygon class="cls-17" points="625.29 202.07 626.99 200.59 619 193.42 617.52 195.04 625.29 202.07"/><g class="cls-38"><path class="cls-40" d="M643.52,237.79a186.58,186.58,0,0,0-10.87-27.46c-6.36-12.85-14.81-19.13-25.1-18.69-10.58.46-16.63,4.44-24,15.77-7,10.76-12.39,30.16-12.45,30.35l-.9,0c.05-.2,5.54-19.91,12.6-30.79,7.44-11.47,13.9-15.71,24.69-16.18s19.41,6,25.94,19.18a194.33,194.33,0,0,1,11.06,27.84Z"/><path class="cls-41" d="M576.29,227.5l31.8-29.05,30.07,27.83h0a148.06,148.06,0,0,0-9.44-20.16l0-.08c-4.22-8-12.11-13.45-21.15-13.45-8.66,0-16.26,5-20.6,12.45l0,0c-4,5.8-7.94,15.18-10.61,22.41Z"/></g><polygon class="cls-7" points="575.91 228.51 576.47 226.79 607.79 198.12 608.39 198.12 637.88 225.46 638.54 227.29 608.09 199.05 575.91 228.51"/><path class="cls-41" d="M614.37,225h-2.53V214.85H601.73v-2.55h12.65Zm-3.79-3.82h-5.06v-5.09h5.06Zm0,6.37h-5.06V222.5h5.06Zm-6.32-6.37H599.2v-5.09h5.06Zm0,6.37H599.2V222.5h5.06ZM600.46,211v3.82h-2.53v14h13.91v-2.55h3.79V211Z"/><g class="cls-42"><path class="cls-35" d="M816.55,94.9v2.21a27.52,27.52,0,0,1-6.63-1.57Z"/><path class="cls-3" d="M810.66,103.31c.5.17.83.11.9-.14s-.18-.52-.67-.69-.82-.14-.9.14.15.51.67.69m.31-1.11c.65.23.93.61.79,1.05s-.55.54-1.19.33-.9-.64-.77-1,.57-.54,1.17-.33"/></g><g class="cls-42"><path class="cls-3" d="M811.66,100.12c.5.17.83.11.9-.14s-.18-.52-.67-.69-.82-.14-.9.14.15.51.67.69M812,99c.65.23.93.61.79,1.05s-.55.54-1.19.33-.9-.64-.77-1,.57-.54,1.17-.33"/></g><g class="cls-42"><path class="cls-3" d="M813.14,95.34c.5.17.83.11.9-.14s-.18-.52-.67-.69-.82-.14-.9.14.15.51.67.69m.31-1.11c.65.23.93.61.79,1.05s-.55.54-1.19.33-.9-.64-.77-1,.57-.54,1.17-.33"/></g><g class="cls-42"><path class="cls-3" d="M814.14,92.15c.5.17.83.11.91-.14s-.18-.52-.67-.69-.82-.14-.9.14.15.51.67.69m.31-1.11c.65.23.93.61.79,1.05s-.55.54-1.19.33-.9-.64-.77-1,.57-.54,1.17-.33"/><path class="cls-3" d="M814.63,90.56c.5.17.83.11.9-.14s-.18-.52-.67-.69-.82-.14-.9.14.15.51.67.69m.31-1.11c.65.23.93.61.79,1.05s-.55.54-1.19.33-.9-.64-.77-1,.57-.54,1.17-.33"/></g><g class="cls-43"><path class="cls-35" d="M809.84,91.19a22,22,0,0,1,7.32.38c3.75.83-2.08,2.08-2.08,2.08Z"/><path class="cls-44" d="M828.52,118.9a3.66,3.66,0,0,1,1.78-.66l5-8.59L832,108.41a.28.28,0,0,1-.15-.35.25.25,0,0,1,.33-.16l3.54,1.36a.26.26,0,0,1,.15.17.29.29,0,0,1,0,.23l-5,8.6a3.16,3.16,0,0,1,1.17.37.28.28,0,0,1,.11.37.25.25,0,0,1-.35.12,2.65,2.65,0,0,0-1.38-.33h0a3.1,3.1,0,0,0-1.63.56.25.25,0,0,1-.15.05.25.25,0,0,1-.21-.11.28.28,0,0,1,.06-.38"/><path class="cls-44" d="M826.43,117.34a3.66,3.66,0,0,1,1.78-.66l5-8.59-3.24-1.25a.28.28,0,0,1-.15-.35.25.25,0,0,1,.33-.16l3.54,1.36a.26.26,0,0,1,.15.17.29.29,0,0,1,0,.23l-5,8.6a3.16,3.16,0,0,1,1.17.37.28.28,0,0,1,.11.37.25.25,0,0,1-.35.12,2.65,2.65,0,0,0-1.38-.33h0a3.1,3.1,0,0,0-1.63.56.25.25,0,0,1-.15.05.25.25,0,0,1-.21-.11.28.28,0,0,1,.06-.38"/><path class="cls-45" d="M815.49,94.7a4.31,4.31,0,0,1,4.18-4.43,4.07,4.07,0,0,1,3.08,1.44h0l0,0a4.46,4.46,0,0,1,.72,1.18l4.2,6.82,9.87,3,10.16-.83-6.64,6.21s-10.54,6.16-17.89.9c-5-3.59-5.57-7.94-5.42-10.36a4.46,4.46,0,0,1-2.28-3.94"/><path class="cls-46" d="M825.07,95.47s12.23,4.91,13.83,5.48a8.49,8.49,0,0,0,5.21,0c1.93-.53,11.19-5.09,11.19-5.09l-.45,2.2,4.12,2-19,5.14,7.27,5.26s-9.74,2.68-17.82-1.49c-6.88-3.55-4.31-13.51-4.31-13.51"/><path class="cls-7" d="M818.1,93.65a1.1,1.1,0,1,0,1.09-1.16,1.13,1.13,0,0,0-1.09,1.16"/></g><polygon class="cls-4" points="527.06 227.48 520.5 209.99 526.03 210.06 518.86 196.54 522.52 197.37 516.61 182.4 509.23 199 513.33 197.77 505.13 212.73 510.87 212.93 505.13 227.48 527.06 227.48"/><polygon class="cls-24" points="153.78 226.32 150 216.21 153.19 216.26 149.05 208.44 151.17 208.92 147.75 200.27 143.49 209.86 145.85 209.15 141.12 217.79 144.43 217.91 141.12 226.32 153.78 226.32"/><polygon class="cls-30" points="173.7 227.3 176.29 220.39 174.11 220.42 176.94 215.07 175.49 215.4 177.83 209.48 180.75 216.04 179.13 215.56 182.37 221.47 180.1 221.55 182.37 227.3 173.7 227.3"/></svg>