<svg xmlns="http://www.w3.org/2000/svg" viewBox="0 0 12 12"><style>.icon-canvas-transparent{opacity:0;fill:#f6f6f6}.icon-vs-out{fill:#f6f6f6}.icon-vs-blue{fill:#1ba1e2}.icon-white{fill:#fff}</style><path class="icon-canvas-transparent" d="M12 12H0V0h12v12z" id="canvas"/><path class="icon-vs-out" d="M12 5.5A5.5 5.5 0 1 1 .999 5.499 5.5 5.5 0 0 1 12 5.5z" id="outline"/><path class="icon-white" d="M10 5.5C10 7.43 8.43 9 6.5 9S3 7.43 3 5.5 4.57 2 6.5 2 10 3.57 10 5.5z" id="iconFg"/><path class="icon-vs-blue" d="M6.5 1a4.5 4.5 0 1 0 0 9 4.5 4.5 0 0 0 0-9zm0 8C4.57 9 3 7.43 3 5.5S4.57 2 6.5 2 10 3.57 10 5.5 8.43 9 6.5 9zM6 5h1v3H6V5zm0-2v1h1V3H6z" id="iconBg"/></svg>