<svg xmlns="http://www.w3.org/2000/svg" width="16" height="16"><style type="text/css">.icon-canvas-transparent{opacity:0;fill:#F6F6F6;} .icon-vs-out{fill:#F6F6F6;} .icon-vs-bg{fill:#424242;} .icon-vs-fg{fill:#F0EFF1;}</style><path class="icon-canvas-transparent" d="M16 16h-16v-16h16v16z" id="canvas"/><path class="icon-vs-out" d="M0 16v-7h2.053c-.65-.636-1.053-1.521-1.053-2.5 0-1.76 1.306-3.221 3-3.464v-1.45l1.584-1.586h8.83l1.586 1.586v5.828l-1.586 1.586h-2.879l-2.535 3.803v3.197h-9z" id="outline"/><path class="icon-vs-bg" d="M2 6.5c0-1.38 1.119-2.5 2.5-2.5 1.379 0 2.5 1.12 2.5 2.5 0 1.381-1.121 2.5-2.5 2.5-1.381 0-2.5-1.119-2.5-2.5m6 3.5v5h-7v-5h2l1.5 2 1.5-2h2zm1-3v2h-1v-2h1zm5-6h-8.001l-.999 1v1.051c.162.023.318.059.472.103l.098.03c.147.049.291.101.43.167v-1.351h8v5h-4l-1 2v2l2-3h3l1-1v-5l-1-1z" id="iconBg"/><g id="iconFg"><path class="icon-vs-fg" d="M14 2v5h-4l-1 2v-2h-1.051c.024-.165.051-.329.051-.5 0-1.391-.822-2.585-2-3.149v-1.351h8z"/></g></svg>